<svg xmlns="http://www.w3.org/2000/svg" width="18.037" height="24.592" viewBox="0 0 18.037 24.592"><defs><style>.a{fill:#fff;fill-rule:evenodd;}</style></defs><g transform="translate(0)"><path class="a" d="M186.7,238.933h-1.759v-6.716a3.565,3.565,0,0,0-.879-2.446,2.869,2.869,0,0,0-2.271-.991,2.921,2.921,0,0,0-2.271.991,3.55,3.55,0,0,0-.9,2.446v6.716H176.8V227.212h1.823v1.2a6.937,6.937,0,0,1,1.551-1.007,4.009,4.009,0,0,1,1.775-.368,4.388,4.388,0,0,1,2.287.624,4.518,4.518,0,0,1,1.583,1.663,5.986,5.986,0,0,1,1.967-1.647,4.7,4.7,0,0,1,2.3-.624,4.388,4.388,0,0,1,2.878,1.007v-6.2l1.871-1.055v23.537l-1.871,1.055V232.185a4.9,4.9,0,0,0-.768-2.4,2.859,2.859,0,0,0-2.255-.991,3,3,0,0,0-2.3.975,3.424,3.424,0,0,0-.927,2.414v6.748Z" transform="translate(-176.8 -220.8)"/></g></svg>